<svg width="29" height="29" viewBox="0 0 29 29" fill="none" xmlns="http://www.w3.org/2000/svg">
<path d="M3.69335 6.29333C1.94166 8.6073 0.9957 11.4311 1.00001 14.3333C1.00001 21.6933 6.97335 27.6667 14.3333 27.6667C21.6933 27.6667 27.6667 21.6933 27.6667 14.3333C27.6667 6.97333 21.6933 1 14.3333 1" stroke="black" stroke-width="2" stroke-linecap="round" stroke-linejoin="round"/>
<path d="M5 14.3333C5 19.4933 9.17333 23.6667 14.3333 23.6667C19.4933 23.6667 23.6667 19.4933 23.6667 14.3333C23.6667 9.17333 19.4933 5 14.3333 5" stroke="black" stroke-width="2" stroke-linecap="round" stroke-linejoin="round"/>
<path d="M14.333 19.6667C17.2797 19.6667 19.6663 17.28 19.6663 14.3333C19.6663 11.3867 17.2797 9 14.333 9" stroke="black" stroke-width="2" stroke-linecap="round" stroke-linejoin="round"/>
</svg>
