<svg width="26" height="30" viewBox="0 0 26 30" fill="none" xmlns="http://www.w3.org/2000/svg">
<path d="M21.7467 23.8932L24.7067 22.4132V18.7065M15.8133 12.0398L12.8533 13.5198M12.8533 13.5198L9.89333 12.0398M12.8533 13.5198V17.2265M24.7067 7.5865L21.7467 9.0665M24.7067 7.5865L21.7467 6.1065M24.7067 7.5865V11.2932M1 7.5865L3.96 6.1065M1 7.5865L3.96 9.0665M1 7.5865V11.2932M12.8533 28.3332L9.89333 26.8532M12.8533 28.3332L15.8133 26.8532M12.8533 28.3332V24.6265M15.8133 3.1465L12.8533 1.6665L9.89333 3.1465H15.8133ZM3.96 23.8932L1 22.4132V18.7065L3.96 23.8932Z" stroke="black" stroke-width="2" stroke-linecap="round" stroke-linejoin="round"/>
</svg>
