<svg width="25" height="29" viewBox="0 0 25 29" fill="none" xmlns="http://www.w3.org/2000/svg">
<path d="M12.4667 28.6767C11.0133 28.6767 9.57333 28.25 8.44 27.41L2.70667 23.13C1.18667 21.9967 0 19.6233 0 17.7433V7.82333C0 5.77 1.50667 3.58333 3.44 2.86333L10.0933 0.37C11.4133 -0.123333 13.4933 -0.123333 14.8133 0.37L21.4667 2.86333C23.4 3.58333 24.9067 5.77 24.9067 7.82333V17.73C24.9067 19.6233 23.72 21.9833 22.2 23.1167L16.4667 27.3967C15.36 28.25 13.92 28.6767 12.4667 28.6767ZM10.8 2.25L4.14667 4.74333C3.01333 5.17 2.01333 6.61 2.01333 7.83667V17.7433C2.01333 19.01 2.90667 20.7833 3.90667 21.53L9.64 25.81C11.1733 26.9567 13.76 26.9567 15.3067 25.81L21.04 21.53C22.0533 20.77 22.9333 19.01 22.9333 17.7433V7.82333C22.9333 6.61 21.9333 5.17 20.8 4.73L14.1467 2.23667C13.24 1.91667 11.6933 1.91667 10.8 2.25Z" fill="black"/>
</svg>
