<svg width="189" height="34" viewBox="0 0 189 34" fill="none" xmlns="http://www.w3.org/2000/svg">
<path d="M6.75607 0H0V3.85346H6.75607V4.79793H6.74429V7.32305H0V11.1765H6.74429V32.806H11.3272V3.85346H30.0958V0H6.75607Z" fill="url(#paint0_linear_1_209)"/>
<path d="M14.838 32.8682H19.4205V11.1765H30.0953V7.323H14.8493C14.8454 15.8379 14.8415 24.3528 14.838 32.8682Z" fill="url(#paint1_linear_1_209)"/>
<path d="M36.0291 16.1344H31V14.27H43.0699V16.1344H38.0408V32.6689H36.0291V16.1344Z" fill="black"/>
<path d="M44.0016 23.4692C44.0016 18.1455 48.1231 14 53.5199 14C58.9167 14 63.0627 18.146 63.0627 23.4692C63.0627 28.7924 58.9658 33.012 53.5199 33.012C48.074 33.012 44.0016 28.8415 44.0016 23.4692ZM61.0511 23.4692C61.0511 19.1759 57.7881 15.8398 53.5199 15.8398C49.2516 15.8398 46.0378 19.1764 46.0378 23.4692C46.0378 27.762 49.2516 31.1477 53.5199 31.1477C57.7881 31.1477 61.0511 27.7865 61.0511 23.4692Z" fill="black"/>
<path d="M80.9708 20.5499C80.9708 24.7696 77.9533 27.3944 72.5319 27.3944C71.1334 27.3944 70.1521 27.2962 69.3426 27.0998V32.6685H67.331V14.2695H73.415C78.3951 14.2695 80.9708 16.9434 80.9708 20.5499ZM78.8609 20.5499C78.8609 18.1456 77.3402 16.0853 73.2678 16.0853H69.3426V25.3091C70.1521 25.4809 71.1334 25.5791 72.5319 25.5791C76.9965 25.5791 78.8609 23.5429 78.8609 20.5499Z" fill="black"/>
<path d="M87.5452 17.5084H83.2274V14.27H95.4686V17.5084H91.1753V32.6689H87.5447V17.5084H87.5452Z" fill="black"/>
<path d="M110.457 32.6689L107.244 27.1003C106.729 27.1494 106.164 27.174 105.6 27.174C104.57 27.174 103.711 27.1003 103 26.9531V32.6689H99.3692V14.27H106.533C111.365 14.27 114.064 16.5762 114.064 20.4522C114.064 23.1752 112.813 25.0887 110.63 26.1681L114.481 32.6689H110.458H110.457ZM110.31 20.5745C110.31 18.6855 109.28 17.4834 106.213 17.4834H102.999V23.886C103.711 24.0087 104.52 24.0824 105.526 24.0824C108.887 24.0824 110.31 22.8556 110.31 20.5745H110.31Z" fill="black"/>
<path d="M127.973 29.3569H120.859L119.485 32.6689H115.511L124.195 14.0491H124.637L133.345 32.6689H129.347L127.973 29.3569H127.973ZM124.416 20.6972L122.036 26.4376H126.771L124.416 20.6972H124.416Z" fill="black"/>
<path d="M152.676 23.4206C152.676 29.0874 148.506 33.0616 142.226 33.0616C139.919 33.0616 137.491 32.6444 136.411 32.2031V14.27H142.545C148.604 14.27 152.676 18.1461 152.676 23.4206ZM148.996 23.4943C148.996 20.2313 146.715 17.5329 142.594 17.5329H139.92V29.5538C140.778 29.701 141.735 29.7992 142.594 29.7992C146.764 29.7992 148.996 27.0026 148.996 23.4948V23.4943Z" fill="black"/>
<path d="M169.112 29.4306V32.6689H156.969V14.27H168.891V17.5084H160.404V21.409H168.475V24.5492H160.404V29.4311H169.112V29.4306Z" fill="black"/>
<path d="M184.763 32.6689L181.549 27.1003C181.035 27.1494 180.47 27.174 179.906 27.174C178.876 27.174 178.017 27.1003 177.306 26.9531V32.6689H173.675V14.27H180.839C185.671 14.27 188.37 16.5762 188.37 20.4522C188.37 23.1752 187.119 25.0887 184.936 26.1681L188.787 32.6689H184.764H184.763ZM184.616 20.5745C184.616 18.6855 183.586 17.4834 180.519 17.4834H177.305V23.886C178.017 24.0087 178.826 24.0824 179.832 24.0824C183.193 24.0824 184.616 22.8556 184.616 20.5745H184.616Z" fill="black"/>
<defs>
<linearGradient id="paint0_linear_1_209" x1="15.0481" y1="32.806" x2="15.0481" y2="0" gradientUnits="userSpaceOnUse">
<stop stop-color="#7E49CE"/>
<stop offset="0.48" stop-color="#397ECB"/>
<stop offset="1" stop-color="#00EDC3"/>
</linearGradient>
<linearGradient id="paint1_linear_1_209" x1="22.4669" y1="32.8682" x2="22.4669" y2="7.323" gradientUnits="userSpaceOnUse">
<stop stop-color="#7E49CE"/>
<stop offset="0.48" stop-color="#397ECB"/>
<stop offset="1" stop-color="#00EDC3"/>
</linearGradient>
</defs>
</svg>
