<svg width="26" height="30" viewBox="0 0 26 30" fill="none" xmlns="http://www.w3.org/2000/svg">
<path fill-rule="evenodd" clip-rule="evenodd" d="M24.0429 25.7395C24.9593 24.3895 25.301 23.6995 26 22.1846C20.8432 20.2946 20.0199 13.1997 25.1146 10.4848C23.5614 8.59483 21.3713 7.49985 19.3054 7.49985C17.8143 7.49985 16.7892 7.87484 15.8727 8.21984C15.0961 8.50483 14.3971 8.75983 13.5273 8.75983C12.5954 8.75983 11.7721 8.47483 10.9023 8.17484C9.95481 7.84484 8.96072 7.49985 7.71811 7.49985C5.40376 7.49985 2.93407 8.86482 1.36528 11.2048C-0.840355 14.5047 -0.45204 20.6846 3.10493 25.9645C4.3786 27.8544 6.08719 29.9694 8.30835 29.9994C9.24031 30.0144 9.84608 29.7444 10.514 29.4594C11.2751 29.1294 12.0983 28.7694 13.5428 28.7694C14.9874 28.7544 15.7951 29.1294 16.5562 29.4594C17.2085 29.7444 17.7988 30.0144 18.7152 29.9994C20.9674 29.9694 22.7692 27.6294 24.0429 25.7395ZM18.9793 0C19.2278 1.64997 18.5288 3.28493 17.6124 4.42491C16.6338 5.65489 14.9252 6.61487 13.2788 6.55487C12.9837 4.9649 13.7448 3.32993 14.6767 2.23496C15.7174 1.03498 17.4726 0.104998 18.9793 0Z" fill="black"/>
</svg>
