<svg width="126" height="37" viewBox="0 0 126 37" fill="none" xmlns="http://www.w3.org/2000/svg">
<path d="M125.3 32.2097C125.3 34.1495 123.696 35.7207 121.712 35.7207H4.29229C2.30924 35.7207 0.699585 34.1495 0.699585 32.2097V4.20999C0.699585 2.27111 2.30924 0.694336 4.29229 0.694336H121.711C123.696 0.694336 125.299 2.27111 125.299 4.20999L125.3 32.2097Z" fill="black"/>
<path d="M121.333 0.736486C123.494 0.736486 125.252 2.4507 125.252 4.55735V31.8573C125.252 33.964 123.494 35.6782 121.333 35.6782H4.66648C2.50582 35.6782 0.74765 33.964 0.74765 31.8573V4.55735C0.74765 2.4507 2.50582 0.736486 4.66648 0.736486H121.333ZM121.333 0.00735056H4.66648C2.10098 0.00735056 -0.000183105 2.05599 -0.000183105 4.55735V31.8573C-0.000183105 34.3587 2.10098 36.4073 4.66648 36.4073H121.333C123.899 36.4073 126 34.3587 126 31.8573V4.55735C126 2.05599 123.899 0.00735056 121.333 0.00735056Z" fill="#A6A6A6"/>
<path d="M28.1203 18.011C28.0932 15.0781 30.5833 13.6512 30.6972 13.5848C29.2869 11.58 27.1011 11.3061 26.3329 11.2843C24.4971 11.0959 22.7163 12.3554 21.7811 12.3554C20.8272 12.3554 19.3871 11.3025 17.8349 11.3334C15.8376 11.3635 13.9691 12.4909 12.9443 14.2418C10.8293 17.8117 12.4067 23.0579 14.4329 25.9435C15.4465 27.3567 16.6309 28.9346 18.1812 28.8791C19.6979 28.8182 20.2644 27.9364 22.0947 27.9364C23.9081 27.9364 24.4401 28.8791 26.0212 28.8436C27.6489 28.8182 28.6737 27.424 29.6519 25.9981C30.8232 24.3783 31.2936 22.783 31.3123 22.7011C31.274 22.6884 28.1511 21.5263 28.1203 18.011Z" fill="white"/>
<path d="M25.1336 9.38603C25.9493 8.3914 26.5075 7.03823 26.3525 5.66504C25.1719 5.716 23.6953 6.46129 22.8451 7.43408C22.0928 8.2913 21.4208 9.69634 21.5944 11.0177C22.9207 11.1141 24.2824 10.3652 25.1336 9.38603Z" fill="white"/>
<path d="M50.0672 28.6762H47.9476L46.7865 25.119H42.7508L41.6448 28.6762H39.5812L43.5796 16.5659H46.0492L50.0672 28.6762ZM46.4365 23.6266L45.3865 20.4644C45.2754 20.1413 45.0673 19.3805 44.7602 18.183H44.7229C44.6006 18.698 44.4037 19.4588 44.133 20.4644L43.1017 23.6266H46.4365Z" fill="white"/>
<path d="M60.3504 24.2022C60.3504 25.6873 59.9388 26.8613 59.1156 27.723C58.3782 28.4902 57.4626 28.8733 56.3697 28.8733C55.19 28.8733 54.3425 28.4601 53.8264 27.6338H53.789V32.2339H51.7992V22.8181C51.7992 21.8845 51.774 20.9262 51.7254 19.9434H53.4754L53.5865 21.3275H53.6238C54.2874 20.2847 55.2945 19.7642 56.646 19.7642C57.7025 19.7642 58.5845 20.1709 59.2901 20.9854C59.9976 21.8007 60.3504 22.8727 60.3504 24.2022ZM58.3232 24.2732C58.3232 23.4233 58.1272 22.7226 57.7333 22.1711C57.303 21.596 56.7253 21.3084 56.001 21.3084C55.5101 21.3084 55.064 21.4686 54.6654 21.7844C54.266 22.1029 54.0046 22.5187 53.8824 23.0338C53.8208 23.274 53.79 23.4706 53.79 23.6253V25.0813C53.79 25.7165 53.9897 26.2525 54.3892 26.6902C54.7886 27.1279 55.3076 27.3463 55.946 27.3463C56.6954 27.3463 57.2788 27.0642 57.696 26.5018C58.1141 25.9385 58.3232 25.196 58.3232 24.2732Z" fill="white"/>
<path d="M70.6505 24.2022C70.6505 25.6873 70.2389 26.8613 69.4147 27.723C68.6783 28.4902 67.7627 28.8733 66.6698 28.8733C65.4901 28.8733 64.6426 28.4601 64.1274 27.6338H64.0901V32.2339H62.1002V22.8181C62.1002 21.8845 62.075 20.9262 62.0265 19.9434H63.7765L63.8875 21.3275H63.9249C64.5875 20.2847 65.5946 19.7642 66.947 19.7642C68.0026 19.7642 68.8846 20.1709 69.5921 20.9854C70.2967 21.8007 70.6505 22.8727 70.6505 24.2022ZM68.6233 24.2732C68.6233 23.4233 68.4263 22.7226 68.0325 22.1711C67.6022 21.596 67.0263 21.3084 66.3011 21.3084C65.8093 21.3084 65.3641 21.4686 64.9646 21.7844C64.5651 22.1029 64.3047 22.5187 64.1825 23.0338C64.1218 23.274 64.0901 23.4706 64.0901 23.6253V25.0813C64.0901 25.7165 64.2898 26.2525 64.6874 26.6902C65.0869 27.127 65.6058 27.3463 66.2461 27.3463C66.9955 27.3463 67.5789 27.0642 67.9961 26.5018C68.4142 25.9385 68.6233 25.196 68.6233 24.2732Z" fill="white"/>
<path d="M82.1675 25.2798C82.1675 26.3099 81.8007 27.148 81.0643 27.795C80.2551 28.5021 79.1286 28.8552 77.681 28.8552C76.3445 28.8552 75.273 28.604 74.4619 28.1008L74.923 26.4837C75.7966 26.9988 76.7551 27.2572 77.7995 27.2572C78.549 27.2572 79.1323 27.0916 79.5514 26.7622C79.9686 26.4328 80.1767 25.9905 80.1767 25.439C80.1767 24.9476 80.005 24.5336 79.6606 24.1978C79.3181 23.862 78.7459 23.5499 77.947 23.2614C75.7723 22.4706 74.6859 21.3122 74.6859 19.7889C74.6859 18.7933 75.0667 17.977 75.8293 17.3419C76.589 16.7058 77.6026 16.3882 78.8701 16.3882C80.0003 16.3882 80.9393 16.5802 81.6887 16.9633L81.1913 18.5449C80.4913 18.1736 79.6998 17.988 78.8141 17.988C78.1141 17.988 77.5671 18.1563 77.1751 18.4912C76.8438 18.7906 76.6777 19.1555 76.6777 19.5877C76.6777 20.0664 76.8671 20.4623 77.2479 20.7735C77.5793 21.061 78.1813 21.3723 79.0549 21.708C80.1235 22.1276 80.9085 22.618 81.4134 23.1804C81.9165 23.741 82.1675 24.4426 82.1675 25.2798Z" fill="white"/>
<path d="M88.7475 21.3994H86.5541V25.6391C86.5541 26.7174 86.9405 27.2561 87.7152 27.2561C88.0708 27.2561 88.3657 27.2261 88.5991 27.1661L88.6541 28.6393C88.2621 28.7822 87.746 28.8541 87.1067 28.8541C86.3208 28.8541 85.7067 28.6202 85.2633 28.1534C84.8219 27.6857 84.5997 26.9012 84.5997 25.7992V21.3976H83.2931V19.9416H84.5997V18.3427L86.5541 17.7676V19.9416H88.7475V21.3994Z" fill="white"/>
<path d="M98.6429 24.2378C98.6429 25.58 98.249 26.682 97.4631 27.5438C96.639 28.4311 95.5452 28.8733 94.1816 28.8733C92.8674 28.8733 91.8211 28.4484 91.0409 27.5984C90.2606 26.7485 89.8705 25.6756 89.8705 24.3825C89.8705 23.0293 90.2718 21.9209 91.0773 21.0592C91.8809 20.1965 92.9654 19.7651 94.329 19.7651C95.6431 19.7651 96.7006 20.1901 97.4986 21.041C98.2621 21.8663 98.6429 22.9319 98.6429 24.2378ZM96.5783 24.3006C96.5783 23.4952 96.4019 22.8045 96.0445 22.2285C95.6273 21.5314 95.0309 21.1838 94.2581 21.1838C93.4582 21.1838 92.8506 21.5324 92.4334 22.2285C92.076 22.8054 91.8996 23.5071 91.8996 24.337C91.8996 25.1423 92.076 25.833 92.4334 26.4081C92.8637 27.1052 93.4647 27.4528 94.2403 27.4528C95.0001 27.4528 95.5965 27.0979 96.0267 26.3899C96.3935 25.803 96.5783 25.105 96.5783 24.3006Z" fill="white"/>
<path d="M105.112 21.6497C104.915 21.6142 104.705 21.596 104.485 21.596C103.785 21.596 103.243 21.8535 102.862 22.3695C102.531 22.8245 102.365 23.3996 102.365 24.0939V28.6758H100.376L100.395 22.6935C100.395 21.687 100.37 20.7706 100.32 19.9443H102.053L102.126 21.6151H102.181C102.391 21.0409 102.722 20.5786 103.176 20.2319C103.619 19.9198 104.098 19.7642 104.614 19.7642C104.798 19.7642 104.964 19.7769 105.112 19.7996V21.6497Z" fill="white"/>
<path d="M114.011 23.8967C114.011 24.2444 113.987 24.5374 113.938 24.7767H107.968C107.991 25.6394 108.28 26.2991 108.834 26.7541C109.337 27.1609 109.988 27.3647 110.787 27.3647C111.671 27.3647 112.477 27.2273 113.202 26.9516L113.514 28.2984C112.667 28.6588 111.666 28.838 110.511 28.838C109.123 28.838 108.033 28.4395 107.239 27.6432C106.448 26.847 106.051 25.7777 106.051 24.4364C106.051 23.1196 106.42 22.023 107.158 21.1485C107.931 20.2149 108.975 19.748 110.289 19.748C111.58 19.748 112.557 20.2149 113.221 21.1485C113.746 21.8902 114.011 22.8075 114.011 23.8967ZM112.113 23.3935C112.126 22.8184 111.996 22.3215 111.727 21.902C111.382 21.3624 110.853 21.093 110.141 21.093C109.49 21.093 108.961 21.356 108.557 21.8838C108.226 22.3033 108.029 22.8066 107.968 23.3926H112.113V23.3935Z" fill="white"/>
<path d="M45.779 9.11563C45.779 10.1867 45.4496 10.993 44.7916 11.5344C44.1821 12.034 43.316 12.2843 42.1941 12.2843C41.6378 12.2843 41.1618 12.2606 40.7633 12.2133V6.36106C41.2832 6.27916 41.8432 6.2373 42.448 6.2373C43.5166 6.2373 44.3221 6.46389 44.8653 6.91707C45.4738 7.4294 45.779 8.16195 45.779 9.11563ZM44.7477 9.14202C44.7477 8.44769 44.5592 7.91534 44.1821 7.54406C43.805 7.17369 43.2544 6.98805 42.5292 6.98805C42.2212 6.98805 41.9589 7.00807 41.7414 7.04993V11.4989C41.8618 11.5171 42.0821 11.5253 42.4022 11.5253C43.1508 11.5253 43.7285 11.3224 44.1354 10.9165C44.5424 10.5107 44.7477 9.91916 44.7477 9.14202Z" fill="white"/>
<path d="M51.2492 10.0512C51.2492 10.711 51.056 11.2515 50.6696 11.6756C50.2645 12.1115 49.7279 12.329 49.0577 12.329C48.4119 12.329 47.8976 12.1206 47.514 11.702C47.1313 11.2843 46.94 10.7574 46.94 10.1222C46.94 9.45791 47.1369 8.91282 47.5327 8.48967C47.9284 8.06652 48.4604 7.85449 49.1305 7.85449C49.7764 7.85449 50.2953 8.06288 50.6883 8.48057C51.0616 8.88643 51.2492 9.41059 51.2492 10.0512ZM50.2347 10.0822C50.2347 9.68632 50.1469 9.34689 49.9724 9.06388C49.7671 8.72172 49.4749 8.55064 49.0951 8.55064C48.7021 8.55064 48.4035 8.72172 48.1981 9.06388C48.0227 9.34689 47.9359 9.69178 47.9359 10.0995C47.9359 10.4953 48.0236 10.8347 48.1981 11.1178C48.41 11.4599 48.7049 11.631 49.0857 11.631C49.4591 11.631 49.7521 11.4572 49.9631 11.1087C50.1441 10.8202 50.2347 10.478 50.2347 10.0822Z" fill="white"/>
<path d="M58.5785 7.94189L57.2019 12.2316H56.3059L55.7356 10.3689C55.591 9.90385 55.4734 9.44157 55.3819 8.98293H55.3642C55.2792 9.45431 55.1616 9.91568 55.0104 10.3689L54.4047 12.2316H53.4984L52.2039 7.94189H53.2091L53.7066 9.9812C53.827 10.4635 53.9259 10.9231 54.0052 11.358H54.023C54.0958 10.9995 54.2162 10.5427 54.386 9.99031L55.0104 7.9428H55.8075L56.4058 9.94662C56.5504 10.4353 56.668 10.9058 56.7585 11.3589H56.7856C56.8519 10.9176 56.9518 10.4471 57.0843 9.94662L57.6182 7.9428H58.5785V7.94189Z" fill="white"/>
<path d="M63.6503 12.2314H62.6722V9.77439C62.6722 9.01727 62.3772 8.63871 61.7855 8.63871C61.4953 8.63871 61.261 8.74245 61.079 8.95084C60.8989 9.15923 60.8074 9.40493 60.8074 9.68612V12.2305H59.8293V9.16742C59.8293 8.79068 59.8171 8.38209 59.7938 7.93983H60.6534L60.6991 8.6105H60.7262C60.8401 8.40211 61.0099 8.23012 61.233 8.09271C61.4981 7.93255 61.7949 7.85156 62.1197 7.85156C62.5303 7.85156 62.8719 7.98078 63.1435 8.24013C63.4814 8.55772 63.6503 9.03183 63.6503 9.66155V12.2314Z" fill="white"/>
<path d="M66.3476 12.2317H65.3704V5.97363H66.3476V12.2317Z" fill="white"/>
<path d="M72.1053 10.0512C72.1053 10.711 71.9121 11.2515 71.5257 11.6756C71.1207 12.1115 70.5831 12.329 69.9139 12.329C69.2671 12.329 68.7528 12.1206 68.3701 11.702C67.9875 11.2843 67.7961 10.7574 67.7961 10.1222C67.7961 9.45791 67.9931 8.91282 68.3888 8.48967C68.7845 8.06652 69.3165 7.85449 69.9857 7.85449C70.6325 7.85449 71.1505 8.06288 71.5444 8.48057C71.9177 8.88643 72.1053 9.41059 72.1053 10.0512ZM71.0899 10.0822C71.0899 9.68632 71.0021 9.34689 70.8276 9.06388C70.6232 8.72172 70.3301 8.55064 69.9512 8.55064C69.5573 8.55064 69.2587 8.72172 69.0543 9.06388C68.8788 9.34689 68.792 9.69178 68.792 10.0995C68.792 10.4953 68.8797 10.8347 69.0543 11.1178C69.2661 11.4599 69.5611 11.631 69.9419 11.631C70.3152 11.631 70.6073 11.4572 70.8183 11.1087C71.0003 10.8202 71.0899 10.478 71.0899 10.0822Z" fill="white"/>
<path d="M76.8401 12.2316H75.9618L75.889 11.7375H75.862C75.5614 12.1315 75.133 12.329 74.5768 12.329C74.1615 12.329 73.8255 12.1988 73.5725 11.9404C73.3429 11.7056 73.2281 11.4135 73.2281 11.0668C73.2281 10.5426 73.4521 10.1431 73.9029 9.8665C74.3528 9.58986 74.9856 9.45427 75.8004 9.46064V9.38056C75.8004 8.81545 75.4961 8.53335 74.8867 8.53335C74.4527 8.53335 74.07 8.63982 73.7396 8.85094L73.5408 8.22486C73.9496 7.97825 74.4545 7.85449 75.05 7.85449C76.1999 7.85449 76.7766 8.44599 76.7766 9.62899V11.2088C76.7766 11.6374 76.7981 11.9786 76.8401 12.2316ZM75.8246 10.7574V10.0958C74.7457 10.0776 74.2063 10.3661 74.2063 10.9603C74.2063 11.1842 74.2679 11.3516 74.3939 11.4636C74.5199 11.5755 74.6804 11.631 74.8717 11.631C75.0864 11.631 75.287 11.5646 75.47 11.4326C75.6538 11.2998 75.7668 11.1314 75.8088 10.9248C75.819 10.8784 75.8246 10.822 75.8246 10.7574Z" fill="white"/>
<path d="M82.3988 12.2317H81.5308L81.4851 11.5428H81.458C81.1808 12.067 80.7085 12.3291 80.0449 12.3291C79.5148 12.3291 79.0733 12.1261 78.7233 11.7203C78.3733 11.3144 78.1988 10.7875 78.1988 10.1405C78.1988 9.44619 78.3883 8.88381 78.7691 8.45429C79.1377 8.05389 79.5895 7.85369 80.1271 7.85369C80.7178 7.85369 81.1313 8.04752 81.3665 8.43609H81.3852V5.97363H82.3643V11.076C82.3643 11.4937 82.3755 11.8786 82.3988 12.2317ZM81.3852 10.4226V9.70736C81.3852 9.5836 81.3758 9.4835 81.3581 9.40706C81.303 9.17774 81.1845 8.98482 81.0044 8.82921C80.8224 8.6736 80.603 8.59534 80.3501 8.59534C79.9852 8.59534 79.6996 8.73639 79.4896 9.0194C79.2815 9.30241 79.176 9.66368 79.176 10.105C79.176 10.5291 79.2759 10.8731 79.4765 11.1379C79.6884 11.42 79.974 11.561 80.3315 11.561C80.6525 11.561 80.9092 11.4436 81.1043 11.208C81.2928 10.9905 81.3852 10.7284 81.3852 10.4226Z" fill="white"/>
<path d="M90.7645 10.0512C90.7645 10.711 90.5713 11.2515 90.1849 11.6756C89.7798 12.1115 89.2441 12.329 88.573 12.329C87.9281 12.329 87.4138 12.1206 87.0293 11.702C86.6466 11.2843 86.4553 10.7574 86.4553 10.1222C86.4553 9.45791 86.6522 8.91282 87.0479 8.48967C87.4437 8.06652 87.9757 7.85449 88.6467 7.85449C89.2917 7.85449 89.8115 8.06288 90.2035 8.48057C90.5769 8.88643 90.7645 9.41059 90.7645 10.0512ZM89.7509 10.0822C89.7509 9.68632 89.6631 9.34689 89.4886 9.06388C89.2823 8.72172 88.9911 8.55064 88.6103 8.55064C88.2183 8.55064 87.9197 8.72172 87.7134 9.06388C87.5379 9.34689 87.4511 9.69178 87.4511 10.0995C87.4511 10.4953 87.5389 10.8347 87.7134 11.1178C87.9253 11.4599 88.2202 11.631 88.601 11.631C88.9743 11.631 89.2683 11.4572 89.4793 11.1087C89.6594 10.8202 89.7509 10.478 89.7509 10.0822Z" fill="white"/>
<path d="M96.0223 12.2314H95.0451V9.77439C95.0451 9.01727 94.7502 8.63871 94.1575 8.63871C93.8673 8.63871 93.633 8.74245 93.4519 8.95084C93.2709 9.15923 93.1803 9.40493 93.1803 9.68612V12.2305H92.2013V9.16742C92.2013 8.79068 92.1901 8.38209 92.1667 7.93983H93.0254L93.0711 8.6105H93.0982C93.213 8.40211 93.3829 8.23012 93.605 8.09271C93.871 7.93255 94.1669 7.85156 94.4926 7.85156C94.9023 7.85156 95.2439 7.98078 95.5155 8.24013C95.8543 8.55772 96.0223 9.03183 96.0223 9.66155V12.2314Z" fill="white"/>
<path d="M102.604 8.65622H101.527V10.7401C101.527 11.2697 101.719 11.5346 102.098 11.5346C102.273 11.5346 102.419 11.52 102.533 11.49L102.559 12.2134C102.365 12.2844 102.112 12.3199 101.799 12.3199C101.412 12.3199 101.112 12.2052 100.894 11.9759C100.676 11.7466 100.568 11.3607 100.568 10.8193V8.65622H99.9247V7.94187H100.568V7.15564L101.526 6.87354V7.94097H102.603V8.65622H102.604Z" fill="white"/>
<path d="M107.784 12.2317H106.805V9.7929C106.805 9.02395 106.51 8.63902 105.919 8.63902C105.466 8.63902 105.156 8.86197 104.986 9.30787C104.957 9.4016 104.94 9.51626 104.94 9.65094V12.2308H103.963V5.97363H104.94V8.55894H104.959C105.267 8.08847 105.708 7.85369 106.281 7.85369C106.686 7.85369 107.021 7.98291 107.287 8.24226C107.618 8.56531 107.784 9.04579 107.784 9.68097V12.2317Z" fill="white"/>
<path d="M113.127 9.88368C113.127 10.0548 113.114 10.1985 113.09 10.3159H110.157C110.17 10.74 110.31 11.063 110.582 11.2869C110.83 11.4871 111.15 11.5872 111.542 11.5872C111.976 11.5872 112.372 11.5199 112.728 11.3843L112.881 12.0468C112.464 12.2233 111.973 12.3116 111.405 12.3116C110.723 12.3116 110.187 12.1159 109.799 11.7246C109.408 11.3333 109.215 10.8082 109.215 10.1494C109.215 9.50239 109.395 8.96367 109.758 8.53415C110.137 8.07551 110.65 7.84619 111.297 7.84619C111.929 7.84619 112.41 8.07551 112.735 8.53415C112.997 8.89815 113.127 9.3486 113.127 9.88368ZM112.193 9.63707C112.201 9.35406 112.137 9.11018 112.004 8.90452C111.834 8.63971 111.576 8.50685 111.226 8.50685C110.906 8.50685 110.646 8.63607 110.447 8.89542C110.285 9.10199 110.189 9.3486 110.157 9.63707H112.193Z" fill="white"/>
</svg>
