<svg width="26" height="28" viewBox="0 0 26 28" fill="none" xmlns="http://www.w3.org/2000/svg">
<path d="M24.6316 11.2074H20.6768C17.4337 11.2074 14.7926 8.56631 14.7926 5.32316V1.36842C14.7926 0.615789 14.1768 0 13.4242 0H7.62211C3.40737 0 0 2.73684 0 7.62211V19.7463C0 24.6316 3.40737 27.3684 7.62211 27.3684H18.3779C22.5926 27.3684 26 24.6316 26 19.7463V12.5758C26 11.8232 25.3842 11.2074 24.6316 11.2074ZM13.3832 18.8568L10.6463 21.5937C10.5505 21.6895 10.4274 21.7716 10.3042 21.8126C10.184 21.8678 10.0533 21.8964 9.92105 21.8964C9.78879 21.8964 9.65809 21.8678 9.5379 21.8126C9.42468 21.7653 9.32226 21.6955 9.23684 21.6074C9.22316 21.5937 9.20947 21.5937 9.20947 21.58L6.47263 18.8432C6.28176 18.65 6.17472 18.3894 6.17472 18.1179C6.17472 17.8464 6.28176 17.5858 6.47263 17.3926C6.86947 16.9958 7.52632 16.9958 7.92316 17.3926L8.89474 18.3916V12.6579C8.89474 12.0968 9.36 11.6316 9.92105 11.6316C10.4821 11.6316 10.9474 12.0968 10.9474 12.6579V18.3916L11.9326 17.4063C12.3295 17.0095 12.9863 17.0095 13.3832 17.4063C13.78 17.8032 13.78 18.46 13.3832 18.8568Z" fill="black"/>
</svg>
