<svg width="126" height="37" viewBox="0 0 126 37" fill="none" xmlns="http://www.w3.org/2000/svg">
<path d="M121.166 36.9072H4.66007C2.0981 36.9072 -0.000183105 34.8586 -0.000183105 32.3572V5.05724C-0.000183105 2.55588 2.0981 0.507238 4.66007 0.507238H121.166C123.728 0.507238 125.827 2.55588 125.827 5.05724V32.3572C125.827 34.8586 123.728 36.9072 121.166 36.9072Z" fill="black"/>
<path d="M121.166 1.23637C123.324 1.23637 125.08 2.95059 125.08 5.05724V32.3572C125.08 34.4639 123.324 36.1781 121.166 36.1781H4.66007C2.50237 36.1781 0.746622 34.4639 0.746622 32.3572V5.05724C0.746622 2.95059 2.50237 1.23637 4.66007 1.23637H121.166ZM121.166 0.507238H4.66007C2.0981 0.507238 -0.000183105 2.55588 -0.000183105 5.05724V32.3572C-0.000183105 34.8586 2.0981 36.9072 4.66007 36.9072H121.166C123.728 36.9072 125.827 34.8586 125.827 32.3572V5.05724C125.827 2.55588 123.728 0.507238 121.166 0.507238Z" fill="#A6A6A6"/>
<path d="M44.1953 9.82906C44.1953 10.5889 43.9623 11.1975 43.5033 11.6513C42.9755 12.1894 42.2881 12.4601 41.4458 12.4601C40.6407 12.4601 39.9533 12.1848 39.3894 11.6422C38.8244 11.0917 38.5424 10.416 38.5424 9.60724C38.5424 8.79848 38.8244 8.12281 39.3894 7.57681C39.9533 7.02967 40.6407 6.75439 41.4458 6.75439C41.8466 6.75439 42.2287 6.83516 42.5934 6.98531C42.9569 7.13659 43.2528 7.34134 43.4672 7.59387L42.9802 8.0739C42.6062 7.64278 42.0971 7.43007 41.4458 7.43007C40.8586 7.43007 40.3495 7.63027 39.9172 8.03408C39.4896 8.43903 39.2753 8.96342 39.2753 9.60724C39.2753 10.2511 39.4896 10.78 39.9172 11.185C40.3495 11.5842 40.8586 11.789 41.4458 11.789C42.0691 11.789 42.5934 11.5842 43.007 11.1804C43.2796 10.9131 43.4346 10.5445 43.4753 10.0736H41.4458V9.41614H44.1534C44.186 9.55833 44.1953 9.69597 44.1953 9.82906Z" fill="white" stroke="white" stroke-width="0.16" stroke-miterlimit="10"/>
<path d="M48.4919 7.54889H45.9485V9.27789H48.2414V9.93537H45.9485V11.6644H48.4919V12.3344H45.2285V6.87891H48.4919V7.54889Z" fill="white" stroke="white" stroke-width="0.16" stroke-miterlimit="10"/>
<path d="M51.5228 12.3344H50.8028V7.54889H49.2428V6.87891H53.084V7.54889H51.5228V12.3344Z" fill="white" stroke="white" stroke-width="0.16" stroke-miterlimit="10"/>
<path d="M55.8625 12.3344V6.87891H56.5813V12.3344H55.8625Z" fill="white" stroke="white" stroke-width="0.16" stroke-miterlimit="10"/>
<path d="M59.7681 12.3344H59.0539V7.54889H57.4881V6.87891H61.334V7.54889H59.7681V12.3344Z" fill="white" stroke="white" stroke-width="0.16" stroke-miterlimit="10"/>
<path d="M68.6061 11.6331C68.055 12.1848 67.3723 12.4601 66.5579 12.4601C65.7388 12.4601 65.0561 12.1848 64.505 11.6331C63.9551 11.0826 63.6813 10.4069 63.6813 9.60724C63.6813 8.80758 63.9551 8.13191 64.505 7.58136C65.0561 7.02967 65.7388 6.75439 66.5579 6.75439C67.3676 6.75439 68.0503 7.02967 68.6014 7.58591C69.156 8.14101 69.4298 8.81213 69.4298 9.60724C69.4298 10.4069 69.156 11.0826 68.6061 11.6331ZM65.0375 11.1759C65.4522 11.5842 65.9567 11.789 66.5579 11.789C67.1544 11.789 67.6635 11.5842 68.0736 11.1759C68.4872 10.7675 68.6969 10.2431 68.6969 9.60724C68.6969 8.97138 68.4872 8.44699 68.0736 8.03863C67.6635 7.63027 67.1544 7.42552 66.5579 7.42552C65.9567 7.42552 65.4522 7.63027 65.0375 8.03863C64.6239 8.44699 64.4142 8.97138 64.4142 9.60724C64.4142 10.2431 64.6239 10.7675 65.0375 11.1759Z" fill="white" stroke="white" stroke-width="0.16" stroke-miterlimit="10"/>
<path d="M70.4419 12.3344V6.87891H71.3157L74.0326 11.1218H74.0641L74.0326 10.073V6.87891H74.7515V12.3344H74.0012L71.1561 7.88218H71.1247L71.1561 8.93551V12.3344H70.4419Z" fill="white" stroke="white" stroke-width="0.16" stroke-miterlimit="10"/>
<path d="M63.5062 20.3018C61.3171 20.3018 59.5287 21.9285 59.5287 24.1727C59.5287 26.3988 61.3171 28.0425 63.5062 28.0425C65.7001 28.0425 67.4884 26.3988 67.4884 24.1727C67.4884 21.9285 65.7001 20.3018 63.5062 20.3018ZM63.5062 26.5183C62.3051 26.5183 61.2717 25.5503 61.2717 24.1727C61.2717 22.777 62.3051 21.8261 63.5062 21.8261C64.7074 21.8261 65.7455 22.777 65.7455 24.1727C65.7455 25.5503 64.7074 26.5183 63.5062 26.5183ZM54.8277 20.3018C52.6339 20.3018 50.8502 21.9285 50.8502 24.1727C50.8502 26.3988 52.6339 28.0425 54.8277 28.0425C57.0203 28.0425 58.8052 26.3988 58.8052 24.1727C58.8052 21.9285 57.0203 20.3018 54.8277 20.3018ZM54.8277 26.5183C53.6253 26.5183 52.5884 25.5503 52.5884 24.1727C52.5884 22.777 53.6253 21.8261 54.8277 21.8261C56.0289 21.8261 57.0623 22.777 57.0623 24.1727C57.0623 25.5503 56.0289 26.5183 54.8277 26.5183ZM44.5006 21.4882V23.1331H48.5235C48.4059 24.0522 48.0913 24.7278 47.609 25.1988C47.0218 25.7675 46.1072 26.3988 44.5006 26.3988C42.0248 26.3988 40.0862 24.448 40.0862 22.0308C40.0862 19.6136 42.0248 17.6628 44.5006 17.6628C45.8392 17.6628 46.8132 18.1736 47.5321 18.8356L48.7193 17.6765C47.7138 16.7392 46.3763 16.0191 44.5006 16.0191C41.1056 16.0191 38.2523 18.7162 38.2523 22.0308C38.2523 25.3455 41.1056 28.0425 44.5006 28.0425C46.3356 28.0425 47.7138 27.4556 48.7973 26.3545C49.9076 25.2704 50.2537 23.7462 50.2537 22.5154C50.2537 22.1332 50.221 21.7817 50.1628 21.4882H44.5006ZM86.7294 22.7634C86.4021 21.8977 85.3919 20.3018 83.3344 20.3018C81.2956 20.3018 79.5981 21.8704 79.5981 24.1727C79.5981 26.3408 81.2781 28.0425 83.5302 28.0425C85.3512 28.0425 86.4021 26.9585 86.8343 26.3272L85.4828 25.4479C85.0319 26.0917 84.418 26.5183 83.5302 26.5183C82.6482 26.5183 82.0156 26.1236 81.6101 25.3455L86.9124 23.2036L86.7294 22.7634ZM81.3235 24.0522C81.2781 22.5598 82.5108 21.7954 83.3939 21.7954C84.0859 21.7954 84.6731 22.1332 84.8688 22.6166L81.3235 24.0522ZM77.014 27.8071H78.7569V16.4321H77.014V27.8071ZM74.1596 21.1641H74.1013C73.7099 20.7113 72.9631 20.3018 72.017 20.3018C70.0318 20.3018 68.2166 22.0035 68.2166 24.1853C68.2166 26.3545 70.0318 28.0425 72.017 28.0425C72.9631 28.0425 73.7099 27.6296 74.1013 27.1632H74.1596V27.7183C74.1596 29.1982 73.3499 29.9933 72.0438 29.9933C70.979 29.9933 70.3184 29.2426 70.0457 28.6113L68.53 29.2289C68.9669 30.255 70.1238 31.5176 72.0438 31.5176C74.0873 31.5176 75.8116 30.3437 75.8116 27.4874V20.5373H74.1596V21.1641ZM72.1662 26.5183C70.965 26.5183 69.9595 25.5366 69.9595 24.1853C69.9595 22.8214 70.965 21.8261 72.1662 21.8261C73.3499 21.8261 74.2831 22.8214 74.2831 24.1853C74.2831 25.5366 73.3499 26.5183 72.1662 26.5183ZM94.8895 16.4321H90.7209V27.8071H92.4592V23.4971H94.8895C96.82 23.4971 98.7133 22.1332 98.7133 19.964C98.7133 17.7959 96.8154 16.4321 94.8895 16.4321ZM94.935 21.9148H92.4592V18.0143H94.935C96.2329 18.0143 96.9738 19.0665 96.9738 19.964C96.9738 20.8444 96.2329 21.9148 94.935 21.9148ZM105.68 20.2802C104.424 20.2802 103.118 20.8217 102.581 22.0217L104.124 22.653C104.456 22.0217 105.066 21.817 105.712 21.817C106.614 21.817 107.528 22.3459 107.542 23.2798V23.3992C107.228 23.2218 106.554 22.959 105.726 22.959C104.064 22.959 102.372 23.852 102.372 25.5184C102.372 27.0427 103.732 28.0243 105.262 28.0243C106.432 28.0243 107.077 27.509 107.483 26.9096H107.542V27.7889H109.221V23.4254C109.221 21.4086 107.678 20.2802 105.68 20.2802ZM105.471 26.5137C104.902 26.5137 104.11 26.2384 104.11 25.5503C104.11 24.6698 105.098 24.332 105.953 24.332C106.718 24.332 107.077 24.4969 107.542 24.7142C107.406 25.7675 106.477 26.5137 105.471 26.5137ZM115.338 20.5293L113.339 25.4604H113.28L111.214 20.5293H109.34L112.444 27.4203L110.673 31.2548H112.489L117.272 20.5293H115.338ZM99.6686 27.8071H101.412V16.4321H99.6686V27.8071Z" fill="white"/>
<path d="M9.72588 7.36783C9.45209 7.64765 9.29364 8.08332 9.29364 8.64751V28.7722C9.29364 29.3364 9.45209 29.772 9.72588 30.0519L9.79345 30.1133L21.3439 18.8407V18.5745L9.79345 7.30185L9.72588 7.36783Z" fill="url(#paint0_linear_1_135)"/>
<path d="M25.1896 22.5996L21.3437 18.8402V18.574L25.1943 14.8146L25.2805 14.8635L29.8405 17.3967C31.1419 18.1156 31.1419 19.2986 29.8405 20.022L25.2805 22.5507L25.1896 22.5996Z" fill="url(#paint1_linear_1_135)"/>
<path d="M25.2809 22.5508L21.3442 18.7072L9.72617 30.0515C10.1584 30.4951 10.8633 30.5485 11.6648 30.1049L25.2809 22.5508Z" fill="url(#paint2_linear_1_135)"/>
<path d="M25.2809 14.8639L11.6648 7.30977C10.8633 6.8707 10.1584 6.92416 9.72617 7.36778L21.3442 18.7075L25.2809 14.8639Z" fill="url(#paint3_linear_1_135)"/>
<defs>
<linearGradient id="paint0_linear_1_135" x1="20.3183" y1="28.9817" x2="5.05074" y2="13.3442" gradientUnits="userSpaceOnUse">
<stop stop-color="#00A0FF"/>
<stop offset="0.0066" stop-color="#00A1FF"/>
<stop offset="0.2601" stop-color="#00BEFF"/>
<stop offset="0.5122" stop-color="#00D2FF"/>
<stop offset="0.7604" stop-color="#00DFFF"/>
<stop offset="1" stop-color="#00E3FF"/>
</linearGradient>
<linearGradient id="paint1_linear_1_135" x1="31.5351" y1="18.7058" x2="8.9824" y2="18.7058" gradientUnits="userSpaceOnUse">
<stop stop-color="#FFE000"/>
<stop offset="0.4087" stop-color="#FFBD00"/>
<stop offset="0.7754" stop-color="#FFA500"/>
<stop offset="1" stop-color="#FF9C00"/>
</linearGradient>
<linearGradient id="paint2_linear_1_135" x1="23.1402" y1="16.6177" x2="2.43612" y2="-4.58808" gradientUnits="userSpaceOnUse">
<stop stop-color="#FF3A44"/>
<stop offset="1" stop-color="#C31162"/>
</linearGradient>
<linearGradient id="paint3_linear_1_135" x1="6.80167" y1="36.7472" x2="16.047" y2="27.2779" gradientUnits="userSpaceOnUse">
<stop stop-color="#32A071"/>
<stop offset="0.0685" stop-color="#2DA771"/>
<stop offset="0.4762" stop-color="#15CF74"/>
<stop offset="0.8009" stop-color="#06E775"/>
<stop offset="1" stop-color="#00F076"/>
</linearGradient>
</defs>
</svg>
