<svg width="26" height="23" viewBox="0 0 26 23" fill="none" xmlns="http://www.w3.org/2000/svg">
<path d="M25.2295 12.9763L21.6141 14.785C21.367 14.9151 21.0679 14.863 20.8598 14.6679L18.4279 12.2346C18.1678 11.9744 18.1678 11.571 18.4279 11.3108L20.8988 8.83847C21.0939 8.64329 21.406 8.59124 21.6531 8.72136L25.2295 10.517C26.2568 11.0115 26.2568 12.4688 25.2295 12.9763ZM18.597 7.17423C19.0001 7.36941 19.0782 7.9029 18.766 8.21519L16.5942 10.3882L15.6709 11.3121C15.4108 11.5723 15.0076 11.5723 14.7475 11.3121L5.46206 2.02276C4.94317 1.50228 5.55309 0.656498 6.21634 0.981799L18.597 7.17423ZM1.50815e-05 22.345V0.653896C1.50815e-05 0.0813658 0.689273 -0.217911 1.10543 0.185462L12.5107 11.2587C12.7838 11.519 12.7708 11.9483 12.4977 12.2086L1.09242 22.8264C0.999381 22.9128 0.883121 22.97 0.757974 22.991C0.632826 23.012 0.504262 22.996 0.388128 22.9448C0.271994 22.8936 0.173366 22.8096 0.104402 22.703C0.0354375 22.5964 -0.000849038 22.4719 1.50815e-05 22.345ZM18.558 16.3191L6.34639 22.4348C5.68314 22.7601 5.07191 21.9143 5.59211 21.3938L14.7605 12.2203C15.0206 11.9601 15.4238 11.9601 15.6839 12.2203L18.74 15.2781C19.0391 15.5904 18.9481 16.1239 18.558 16.3191Z" fill="black"/>
</svg>
