<svg width="22" height="22" viewBox="0 0 22 22" fill="none" xmlns="http://www.w3.org/2000/svg">
<path d="M21.4575 10.7297C21.4575 4.80334 16.6541 0 10.7287 0C4.80316 0 -0.000183105 4.80334 -0.000183105 10.7297C-0.000183105 16.0839 3.92332 20.5224 9.05213 21.3271V13.8306H6.32857V10.7288H9.05213V8.36561C9.05213 5.67603 10.6544 4.19085 13.1044 4.19085C14.2784 4.19085 15.5061 4.40008 15.5061 4.40008V7.04049H14.1541C12.8218 7.04049 12.4061 7.86757 12.4061 8.71611V10.7297H15.3818L14.9061 13.8315H12.4061V21.328C17.5349 20.5233 21.4584 16.0848 21.4584 10.7297H21.4575Z" fill="black"/>
</svg>
