<svg width="22" height="22" viewBox="0 0 22 22" fill="none" xmlns="http://www.w3.org/2000/svg">
<path d="M11.2631 0C8.34835 0 7.98445 0.0134116 6.83999 0.0643757C5.69733 0.118022 4.91945 0.297738 4.23546 0.563287C3.53001 0.836884 2.93096 1.20436 2.33459 1.80073C1.73822 2.3971 1.36985 2.99526 1.09715 3.7016C0.831597 4.38559 0.650987 5.16347 0.598235 6.30614C0.544589 7.45059 0.533859 7.81449 0.533859 10.7293C0.533859 13.6441 0.547271 14.008 0.598235 15.1524C0.651881 16.2942 0.831597 17.073 1.09715 17.757C1.36653 18.473 1.78882 19.1217 2.33459 19.6578C2.87041 20.204 3.51919 20.6263 4.23546 20.8953C4.92035 21.1599 5.69822 21.3414 6.83999 21.3942C7.98445 21.4478 8.34835 21.4586 11.2631 21.4586C14.1779 21.4586 14.5418 21.4452 15.6863 21.3942C16.8281 21.3405 17.6068 21.1599 18.2908 20.8953C19.0067 20.6256 19.6553 20.2033 20.1917 19.6578C20.738 19.1222 21.1604 18.4733 21.4291 17.757C21.6938 17.073 21.8753 16.2942 21.928 15.1524C21.9817 14.008 21.9924 13.6441 21.9924 10.7293C21.9924 7.81449 21.979 7.45059 21.928 6.30614C21.8744 5.16436 21.6938 4.3847 21.4291 3.7016C21.1596 2.98562 20.7373 2.33695 20.1917 1.80073C19.6563 1.25411 19.0074 0.831689 18.2908 0.563287C17.6068 0.297738 16.8281 0.117128 15.6863 0.0643757C14.5418 0.0107293 14.1779 0 11.2631 0ZM11.2631 1.93127C14.127 1.93127 14.4685 1.94558 15.5996 1.99475C16.6457 2.04393 17.2134 2.21738 17.5907 2.36581C18.0932 2.55983 18.4491 2.7923 18.8264 3.16693C19.201 3.54245 19.4335 3.8992 19.6275 4.40169C19.7741 4.779 19.9494 5.34676 19.9968 6.39286C20.0477 7.5248 20.0594 7.86456 20.0594 10.7293C20.0594 13.594 20.046 13.9347 19.9932 15.0657C19.9387 16.1118 19.7643 16.6796 19.6168 17.0569C19.4422 17.5225 19.1679 17.9442 18.813 18.2925C18.4662 18.6478 18.0447 18.9214 17.5791 19.0937C17.2036 19.2403 16.6269 19.4155 15.5808 19.4629C14.4417 19.5139 14.1064 19.5255 11.2363 19.5255C8.36534 19.5255 8.03005 19.5121 6.89185 19.4593C5.84485 19.4048 5.26815 19.2304 4.89263 19.0829C4.42671 18.9105 4.00539 18.6359 3.65966 18.2791C3.30075 17.9347 3.02548 17.5126 2.85496 17.0453C2.70743 16.6697 2.53398 16.093 2.47944 15.0469C2.4392 13.9203 2.4249 13.5725 2.4249 10.7159C2.4249 7.8583 2.4392 7.5096 2.47944 6.36962C2.53398 5.32351 2.70743 4.74771 2.85496 4.37218C3.04272 3.86254 3.28324 3.51384 3.65966 3.13742C4.03429 2.76279 4.38388 2.52138 4.89263 2.33451C5.26815 2.18609 5.83234 2.01174 6.87844 1.95809C8.01843 1.91786 8.35372 1.90445 11.2229 1.90445L11.2631 1.93127ZM11.2631 5.2198C10.5396 5.2198 9.82319 5.3623 9.15475 5.63918C8.48631 5.91606 7.87895 6.32188 7.36735 6.83349C6.85574 7.34509 6.44992 7.95245 6.17304 8.62089C5.89616 9.28933 5.75365 10.0058 5.75365 10.7293C5.75365 11.4528 5.89616 12.1692 6.17304 12.8377C6.44992 13.5061 6.85574 14.1135 7.36735 14.6251C7.87895 15.1367 8.48631 15.5425 9.15475 15.8194C9.82319 16.0963 10.5396 16.2388 11.2631 16.2388C12.7243 16.2388 14.1257 15.6583 15.1589 14.6251C16.1922 13.5918 16.7726 12.1905 16.7726 10.7293C16.7726 9.26807 16.1922 7.86672 15.1589 6.83349C14.1257 5.80026 12.7243 5.2198 11.2631 5.2198ZM11.2631 14.3057C9.28716 14.3057 7.68671 12.7053 7.68671 10.7293C7.68671 8.75331 9.28716 7.15285 11.2631 7.15285C13.2391 7.15285 14.8396 8.75331 14.8396 10.7293C14.8396 12.7053 13.2391 14.3057 11.2631 14.3057ZM18.2783 5.00253C18.2659 5.33569 18.1248 5.65108 17.8847 5.88239C17.6446 6.11371 17.3242 6.24294 16.9908 6.24294C16.6574 6.24294 16.337 6.11371 16.0969 5.88239C15.8568 5.65108 15.7157 5.33569 15.7033 5.00253C15.7033 4.66106 15.8389 4.33357 16.0804 4.09212C16.3218 3.85066 16.6493 3.71501 16.9908 3.71501C17.3323 3.71501 17.6597 3.85066 17.9012 4.09212C18.1427 4.33357 18.2783 4.66106 18.2783 5.00253Z" fill="black"/>
</svg>
