<svg width="22" height="22" viewBox="0 0 22 22" fill="none" xmlns="http://www.w3.org/2000/svg">
<path d="M18.8231 18.2863H15.6454V13.307C15.6454 12.1196 15.6213 10.5916 13.9895 10.5916C12.3327 10.5916 12.0797 11.8836 12.0797 13.2194V18.2863H8.90205V8.04696H11.9545V9.44266H11.9957C12.4222 8.63797 13.4593 7.78856 15.0088 7.78856C18.2285 7.78856 18.824 9.9076 18.824 12.6659L18.8231 18.2863ZM5.31311 6.6459C5.0707 6.64601 4.83064 6.59832 4.60668 6.50556C4.38272 6.41279 4.17925 6.27677 4.00792 6.10527C3.8366 5.93378 3.70077 5.73018 3.60822 5.50613C3.51567 5.28208 3.46821 5.04198 3.46857 4.79957C3.46874 4.43457 3.57715 4.07783 3.78007 3.77445C3.983 3.47106 4.27133 3.23467 4.60861 3.09516C4.94589 2.95564 5.31696 2.91928 5.67491 2.99066C6.03285 3.06204 6.36159 3.23796 6.61955 3.49617C6.87752 3.75439 7.05312 4.0833 7.12415 4.44131C7.19519 4.79932 7.15846 5.17036 7.01862 5.5075C6.87878 5.84465 6.64211 6.13275 6.33853 6.33538C6.03495 6.53801 5.6781 6.64607 5.31311 6.6459ZM6.90641 18.2863H3.71981V8.04696H6.90641V18.2863ZM20.4128 0H2.12472C1.24939 0 0.54126 0.692039 0.54126 1.54591V19.9127C0.54126 20.7674 1.24939 21.4586 2.12472 21.4586H20.4101C21.2845 21.4586 21.9998 20.7674 21.9998 19.9127V1.54591C21.9998 0.692039 21.2845 0 20.4101 0H20.4128Z" fill="black"/>
</svg>
