<svg width="27" height="22" viewBox="0 0 27 22" fill="none" xmlns="http://www.w3.org/2000/svg">
<path d="M26.4157 2.55589C25.4273 2.99106 24.3803 3.27832 23.3082 3.4084C24.4369 2.72997 25.2821 1.66603 25.6875 0.413061C24.6414 1.02357 23.482 1.46798 22.2478 1.71548C21.4335 0.84474 20.3545 0.267223 19.1783 0.0726083C18.0022 -0.122006 16.7947 0.0771722 15.7433 0.639214C14.6919 1.20126 13.8556 2.09471 13.3641 3.18084C12.8726 4.26696 12.7535 5.48498 13.0252 6.64575C8.52617 6.43345 4.53861 4.27302 1.86997 1.00707C1.38464 1.83188 1.13149 2.77262 1.13736 3.72961C1.13736 5.61064 2.09438 7.26396 3.5442 8.23527C2.68493 8.20792 1.84464 7.9756 1.09336 7.55766V7.62476C1.09288 8.87481 1.52486 10.0865 2.31604 11.0543C3.10721 12.0222 4.20884 12.6865 5.43402 12.9345C4.64014 13.1473 3.80866 13.1792 3.00079 13.028C3.34867 14.1038 4.02362 15.0441 4.93148 15.7179C5.83935 16.3917 6.93488 16.7654 8.06526 16.7868C6.15067 18.2893 3.78671 19.1048 1.35297 19.1023C0.923961 19.1023 0.496055 19.077 0.0659485 19.0286C2.54726 20.6174 5.43239 21.4608 8.37877 21.4586C18.3383 21.4586 23.7779 13.2128 23.7779 6.07374C23.7779 5.84384 23.7779 5.61173 23.7614 5.38073C24.824 4.61605 25.7405 3.66669 26.4674 2.57789L26.4157 2.55589Z" fill="black"/>
</svg>
